# xmcd CD database file
#
# Track frame offsets:
#	150
#	19049
#	38032
#	55439
#	80283
#
# Disc length: 1311 seconds
#
# Revision: 0
# Processed by: cddbd v1.5PL3 Copyright (c) Steve Scherf et al.
# Submitted via: CDex 1.50beta9
#
DISCID=33051d05
DTITLE=SOUL'd OUT - ウェカピポ
DYEAR=2002
DGENRE=Hip-Hop
TTITLE0=ウェカピポ
TTITLE1=Diggy Diggy Diggy
TTITLE2=Hunter
TTITLE3=S.O Magic
TTITLE4=ウェカピポ〜Tiny Voice Production Remix
EXTD=YEAR: 2002
EXTT0=
EXTT1=
EXTT2=
EXTT3=
EXTT4=
PLAYORDER=
